<svg width="173" height="174" viewBox="0 0 173 174" fill="none" xmlns="http://www.w3.org/2000/svg">
  <path d="M93.4329 13.3268L87.2131 13.0082L87.3369 10.5894L88.8919 10.669L89.2636 3.41254L87.7086 3.33289L87.8325 0.914062L94.0524 1.23264L93.9285 3.65147L92.3735 3.57183L92.0018 10.8283L93.5568 10.908L93.4329 13.3268Z" fill="#0ED762"/>
  <path d="M106.486 15.782L103.47 15.0082L105.877 5.62409L102.358 4.72129L102.96 2.37527L113.014 4.9547L112.412 7.30072L108.893 6.39792L106.486 15.782Z" fill="#0ED762"/>
  <path d="M117.783 10.1497C118.902 10.3778 119.849 10.6575 120.623 10.9888L121.339 11.2951C122.06 11.6037 122.545 12.0684 122.793 12.6892C123.042 13.31 123.012 13.9809 122.703 14.7019L120.048 20.9046L117.265 19.7133L119.784 13.8287C119.852 13.6696 119.856 13.5144 119.795 13.363C119.734 13.2116 119.624 13.1019 119.465 13.0338L118.909 12.7955C118.506 12.6231 118.126 12.4855 117.768 12.3826C117.421 12.2844 117.143 12.2027 116.932 12.1377L114.243 18.42L111.46 17.2287L116.225 6.09559L119.008 7.28685L117.783 10.1497Z" fill="#0ED762"/>
  <path d="M129.436 16.1782L125.044 23.8305L122.418 22.3236L125.647 16.6969L124.522 16.051L125.684 14.0254L129.436 16.1782ZM128.532 11.6703L131.158 13.1773L129.952 15.2779L127.326 13.771L128.532 11.6703Z" fill="#0ED762"/>
  <path d="M135.068 22.3987C134.576 22.0353 133.951 21.7167 133.193 21.4429L129.336 26.6596L126.902 24.8599L132.352 17.4869L134.509 19.0809L134.133 19.8793C134.782 19.914 135.381 20.0345 135.932 20.2406C136.498 20.4443 136.939 20.6627 137.255 20.8958L137.881 21.3586C138.511 21.8248 138.876 22.3885 138.975 23.0499C139.074 23.7112 138.891 24.3572 138.425 24.9879L134.414 30.4133L131.979 28.6136L135.682 23.6055C135.784 23.4664 135.824 23.3162 135.8 23.1549C135.775 22.9936 135.694 22.8615 135.555 22.7587L135.068 22.3987Z" fill="#0ED762"/>
  <path d="M140.675 31.3664L138.105 33.9343L135.965 31.7926L144.531 23.2331L146.671 25.3748L142.327 29.7157L143.305 30.6947L146.914 29.7788L149.176 32.0428L144.221 33.3252L142.69 38.5236L140.428 36.2595L141.592 32.2843L140.675 31.3664Z" fill="#0ED762"/>
  <path d="M155.084 41.3701C155.401 41.8379 155.508 42.3154 155.406 42.8024C155.32 43.2924 155.044 43.696 154.576 44.013L154.003 44.4011C153.535 44.7181 153.053 44.8289 152.556 44.7334C152.076 44.6411 151.677 44.361 151.36 43.8931L150.972 43.3202C150.655 42.8524 150.539 42.3734 150.625 41.8833C150.727 41.3963 151.012 40.9944 151.48 40.6774L152.053 40.2892C152.52 39.9722 152.995 39.8599 153.475 39.9523C153.972 40.0477 154.379 40.3293 154.695 40.7972L155.084 41.3701Z" fill="#0ED762"/>
  <path d="M155.416 59.4677L152.837 53.7988L155.041 52.7958L155.686 54.213L162.3 51.2042L161.655 49.7869L163.86 48.784L166.439 54.4529L164.234 55.4559L163.589 54.0386L156.976 57.0475L157.62 58.4647L155.416 59.4677Z" fill="#0ED762"/>
  <path d="M160.173 75.5443C159.373 73.089 158.784 71.0351 158.405 69.3826C158.152 68.281 158.225 67.4123 158.624 66.7766C159.022 66.1409 159.772 65.6967 160.874 65.444L166.27 64.2065C167.45 63.9358 168.365 64.004 169.015 64.4112C169.678 64.827 170.145 65.6251 170.416 66.8055L171.808 72.8758L169.447 73.4173L168.21 68.0214C168.055 67.3469 167.641 67.087 166.966 67.2417L161.57 68.4792C161.312 68.5385 161.12 68.6593 160.997 68.8415C160.887 69.0324 160.859 69.2459 160.913 69.482C160.967 69.7181 161.026 69.9766 161.091 70.2576C161.166 70.5361 161.245 70.8258 161.325 71.1267C161.406 71.4277 161.487 71.7286 161.568 72.0296C161.651 72.3417 161.765 72.7357 161.91 73.2113C162.057 73.6982 162.237 74.3018 162.45 75.0222L160.173 75.5443Z" fill="#0ED762"/>
  <path d="M163.497 86.399C162.634 86.4625 161.938 86.2651 161.407 85.8068C160.888 85.3593 160.597 84.7042 160.534 83.8415L160.242 79.8732C160.178 79.0105 160.37 78.3141 160.817 77.784C161.276 77.2645 161.937 76.9731 162.799 76.9096L166.767 76.6178C167.63 76.5543 168.321 76.7464 168.839 77.194C169.37 77.6522 169.668 78.3126 169.731 79.1753L170.023 83.1436C170.086 84.0062 169.889 84.6973 169.429 85.2168C168.983 85.7469 168.328 86.0437 167.465 86.1072L163.497 86.399ZM166.985 83.1068C167.445 83.073 167.658 82.826 167.624 82.366L167.472 80.2955C167.438 79.8354 167.191 79.6223 166.731 79.6562L163.28 79.91C162.82 79.9438 162.607 80.1907 162.641 80.6508L162.793 82.7213C162.827 83.1813 163.074 83.3945 163.534 83.3606L166.985 83.1068Z" fill="#0ED762"/>
  <path d="M160.37 95.2856L161.246 95.1823C160.933 94.6134 160.713 94.0346 160.587 93.4459C160.471 92.8697 160.429 92.3861 160.46 91.9952L160.523 91.2192C160.585 90.4375 160.871 89.8298 161.38 89.3963C161.889 88.9628 162.535 88.7773 163.317 88.8401L167.283 89.1583C168.145 89.2274 168.798 89.5228 169.242 90.0444C169.697 90.5784 169.89 91.2765 169.821 92.1387L169.537 95.6739L172.469 95.9091L172.227 98.9269L160.155 97.9585L160.37 95.2856ZM162.892 93.0581C162.843 93.6674 162.902 94.3664 163.07 95.1551L167.209 95.4871L167.417 92.9004C167.454 92.4406 167.242 92.1922 166.782 92.1553L163.592 91.8994C163.42 91.8855 163.271 91.9315 163.147 92.0372C163.023 92.143 162.954 92.2821 162.94 92.4545L162.892 93.0581Z" fill="#0ED762"/>
  <path d="M165.98 105.227C166.085 104.778 165.913 104.501 165.464 104.396L164.538 104.179L163.868 107.043L164.794 107.26C165.244 107.365 165.521 107.193 165.626 106.743L165.98 105.227ZM158.035 108.433C158.318 106.213 158.665 104.221 159.077 102.458C159.256 101.694 159.629 101.136 160.197 100.783C160.765 100.431 161.431 100.343 162.195 100.522L166.238 101.468C167.08 101.665 167.682 102.054 168.043 102.636C168.413 103.232 168.5 103.951 168.303 104.793L167.515 108.162C167.318 109.005 166.923 109.605 166.33 109.964C165.745 110.336 165.032 110.424 164.189 110.227L161.073 109.498L162.432 103.687L161.758 103.529C161.59 103.49 161.436 103.513 161.298 103.599C161.159 103.685 161.07 103.812 161.031 103.981C160.771 105.093 160.474 106.741 160.141 108.925L158.035 108.433Z" fill="#0ED762"/>
  <path d="M161.733 121.44C161.501 121.956 161.152 122.298 160.684 122.468C160.222 122.653 159.733 122.629 159.218 122.398L158.586 122.115C158.07 121.884 157.723 121.532 157.543 121.06C157.368 120.602 157.397 120.116 157.628 119.6L157.911 118.969C158.142 118.453 158.489 118.103 158.951 117.918C159.418 117.749 159.91 117.779 160.426 118.011L161.057 118.294C161.573 118.525 161.918 118.869 162.092 119.326C162.272 119.799 162.247 120.293 162.016 120.809L161.733 121.44Z" fill="#0ED762"/>
  <path d="M146.511 131.244L149.976 126.069L151.989 127.416L151.123 128.71L157.16 132.752L158.027 131.459L160.039 132.806L156.574 137.981L154.562 136.634L155.428 135.34L149.39 131.297L148.524 132.591L146.511 131.244Z" fill="#0ED762"/>
  <path d="M150.318 145.808L145.354 150.629C144.543 151.416 143.766 151.808 143.024 151.806C142.29 151.811 141.557 151.438 140.826 150.685C140.344 150.188 140.058 149.678 139.968 149.155C139.886 148.64 139.942 148.168 140.135 147.738C139.289 148.207 138.4 148.202 137.469 147.724C137.137 147.547 136.806 147.29 136.477 146.951C135.689 146.14 135.301 145.359 135.312 144.609C135.323 143.859 135.734 143.09 136.545 142.302L141.882 137.12L150.318 145.808ZM139.072 145.153C139.554 145.65 140.044 145.657 140.54 145.175L143.022 142.765L141.335 141.027L138.853 143.437C138.356 143.92 138.349 144.409 138.831 144.905L139.072 145.153ZM142.819 148.267C143.301 148.763 143.791 148.771 144.287 148.289L146.397 146.24L144.71 144.502L142.6 146.551C142.103 147.033 142.096 147.522 142.578 148.019L142.819 148.267Z" fill="#0ED762"/>
  <path d="M130.469 150.119C129.967 150.467 129.464 150.957 128.961 151.587L132.66 156.916L130.173 158.642L124.945 151.11L127.147 149.581L127.783 150.193C128.024 149.59 128.332 149.053 128.708 148.582C129.08 148.128 129.427 147.788 129.749 147.565L130.389 147.121C131.033 146.674 131.684 146.509 132.342 146.628C133 146.747 133.553 147.129 134 147.773L137.847 153.316L135.36 155.042L131.809 149.926C131.71 149.783 131.581 149.698 131.42 149.669C131.26 149.64 131.108 149.675 130.966 149.773L130.469 150.119Z" fill="#0ED762"/>
  <path d="M123.844 161.653L119.693 153.868L122.365 152.444L125.417 158.168L126.562 157.558L127.661 159.619L123.844 161.653ZM128.144 163.282L125.472 164.707L124.333 162.569L127.004 161.145L128.144 163.282Z" fill="#0ED762"/>
  <path d="M113.586 156.611C114.249 156.198 114.903 155.851 115.549 155.572C116.184 155.297 116.812 155.282 117.434 155.528C118.056 155.774 118.523 156.257 118.834 156.977L122.685 165.867L119.907 167.07L116.228 158.577C116.159 158.418 116.049 158.309 115.898 158.249C115.746 158.189 115.591 158.193 115.432 158.262L114.479 158.674L113.586 156.611Z" fill="#0ED762"/>
  <path d="M105.916 159.121L106.329 159.9C106.747 159.402 107.207 158.988 107.71 158.658C108.205 158.341 108.641 158.127 109.017 158.015L109.763 157.792C110.514 157.568 111.184 157.615 111.772 157.933C112.361 158.251 112.767 158.785 112.991 159.537L114.129 163.35C114.376 164.179 114.337 164.895 114.012 165.497C113.678 166.114 113.097 166.546 112.268 166.794L108.87 167.808L109.711 170.626L106.81 171.492L103.347 159.887L105.916 159.121ZM108.905 160.666C108.319 160.841 107.689 161.149 107.015 161.591L108.202 165.57L110.689 164.828C111.131 164.696 111.286 164.409 111.154 163.967L110.239 160.9C110.189 160.734 110.093 160.613 109.949 160.535C109.806 160.458 109.651 160.443 109.485 160.493L108.905 160.666Z" fill="#0ED762"/>
  <path d="M94.0865 169.626C93.524 169.68 93.0534 169.545 92.6749 169.222C92.286 168.912 92.0645 168.476 92.0106 167.913L91.9445 167.224C91.8906 166.662 92.0245 166.185 92.3463 165.795C92.6577 165.418 93.0947 165.202 93.6572 165.148L94.3461 165.082C94.9086 165.028 95.3844 165.156 95.7733 165.467C96.1518 165.79 96.3681 166.232 96.422 166.795L96.4881 167.484C96.542 168.046 96.4133 168.516 96.1019 168.894C95.7801 169.284 95.3379 169.506 94.7754 169.56L94.0865 169.626Z" fill="#0ED762"/>
  <path d="M77.9008 161.246L84.1124 161.697L83.937 164.113L82.3841 164L81.8578 171.247L83.4107 171.36L83.2353 173.775L77.0237 173.324L77.1991 170.908L78.752 171.021L79.2783 163.774L77.7254 163.662L77.9008 161.246Z" fill="#0ED762"/>
  <path d="M64.907 158.51L67.9059 159.349L65.296 168.679L68.7947 169.657L68.1422 171.99L58.146 169.194L58.7984 166.861L62.2971 167.84L64.907 158.51Z" fill="#0ED762"/>
  <path d="M53.4894 163.896C52.3754 163.644 51.435 163.344 50.6683 162.996L49.9594 162.674C49.2453 162.35 48.7706 161.875 48.5354 161.249C48.3002 160.623 48.3447 159.953 48.6688 159.239L51.457 153.095L54.2139 154.346L51.5686 160.175C51.4971 160.332 51.4901 160.487 51.5474 160.64C51.6048 160.793 51.7123 160.905 51.8698 160.976L52.4212 161.227C52.8203 161.408 53.1974 161.554 53.5525 161.664C53.8972 161.77 54.174 161.857 54.3831 161.927L57.2071 155.704L59.964 156.955L54.9594 167.983L52.2026 166.732L53.4894 163.896Z" fill="#0ED762"/>
  <path d="M41.9821 157.626L46.5361 150.069L49.1291 151.632L45.7806 157.188L46.8919 157.858L45.6865 159.858L41.9821 157.626ZM42.7893 162.152L40.1963 160.589L41.4464 158.515L44.0394 160.077L42.7893 162.152Z" fill="#0ED762"/>
  <path d="M36.4805 151.284C36.9642 151.658 37.5823 151.99 38.3348 152.28L42.3016 147.147L44.6972 148.998L39.0908 156.253L36.9689 154.613L37.361 153.823C36.7134 153.775 36.1167 153.641 35.5708 153.424C35.0087 153.208 34.5725 152.98 34.2622 152.74L33.6462 152.264C33.0256 151.785 32.6728 151.213 32.5878 150.55C32.5028 149.887 32.7 149.245 33.1796 148.624L37.305 143.286L39.7006 145.137L35.8925 150.065C35.7867 150.202 35.7442 150.351 35.7649 150.513C35.7857 150.675 35.8645 150.808 36.0014 150.914L36.4805 151.284Z" fill="#0ED762"/>
  <path d="M31.0681 142.202L33.6919 139.689L35.7859 141.876L27.0396 150.252L24.9456 148.065L29.3813 143.817L28.424 142.818L24.7963 143.657L22.5827 141.345L27.5637 140.168L29.2049 135.004L31.4185 137.315L30.1706 141.265L31.0681 142.202Z" fill="#0ED762"/>
  <path d="M16.8772 131.898C16.5702 131.424 16.4728 130.944 16.5851 130.459C16.6814 129.971 16.9667 129.574 17.4412 129.267L18.0222 128.891C18.4967 128.584 18.9812 128.483 19.4756 128.589C19.954 128.692 20.3467 128.98 20.6537 129.455L21.0296 130.036C21.3366 130.51 21.4419 130.992 21.3457 131.48C21.2334 131.964 20.9401 132.36 20.4656 132.667L19.8846 133.043C19.4101 133.35 18.9336 133.452 18.4552 133.35C17.9608 133.244 17.5601 132.954 17.2531 132.479L16.8772 131.898Z" fill="#0ED762"/>
  <path d="M16.9254 113.782L19.3813 119.506L17.1556 120.461L16.5416 119.03L9.86438 121.895L10.4784 123.326L8.25263 124.281L5.79669 118.558L8.02242 117.603L8.63641 119.034L15.3136 116.168L14.6996 114.737L16.9254 113.782Z" fill="#0ED762"/>
  <path d="M12.5157 97.5978C13.2619 100.07 13.8065 102.136 14.1495 103.796C14.3782 104.903 14.2864 105.77 13.8742 106.397C13.462 107.024 12.7024 107.452 11.5955 107.681L6.17398 108.8C4.98802 109.045 4.07478 108.957 3.43426 108.536C2.78011 108.106 2.33053 107.298 2.08553 106.112L0.825545 100.013L3.19746 99.5228L4.31745 104.944C4.45745 105.622 4.8663 105.891 5.54399 105.751L10.9655 104.631C11.2253 104.577 11.4191 104.461 11.5469 104.281C11.661 104.093 11.6936 103.88 11.6446 103.643C11.5956 103.405 11.542 103.146 11.4836 102.863C11.414 102.583 11.342 102.292 11.2677 101.989C11.1934 101.687 11.1192 101.384 11.0449 101.081C10.9682 100.768 10.8628 100.371 10.7286 99.8925C10.592 99.4026 10.4253 98.7952 10.2285 98.0703L12.5157 97.5978Z" fill="#0ED762"/>
  <path d="M9.42551 86.682C10.2893 86.6369 10.9818 86.8491 11.5029 87.3186C12.0118 87.7771 12.2888 88.4383 12.3339 89.3021L12.5411 93.2757C12.5861 94.1395 12.3797 94.8317 11.9218 95.3522C11.4517 95.8617 10.7848 96.139 9.92097 96.1841L5.94736 96.3913C5.08354 96.4363 4.39714 96.2296 3.88818 95.771C3.36709 95.3016 3.08403 94.635 3.03899 93.7712L2.8318 89.7976C2.78676 88.9337 2.99925 88.247 3.46929 87.7375C3.92721 87.217 4.58808 86.9342 5.45191 86.8892L9.42551 86.682ZM5.8687 89.8991C5.40799 89.9231 5.18965 90.1654 5.21367 90.6262L5.32177 92.6993C5.3458 93.16 5.58816 93.3784 6.04887 93.3544L9.50417 93.1742C9.96488 93.1502 10.1832 92.9078 10.1592 92.4471L10.0511 90.3739C10.0271 89.9132 9.78472 89.6949 9.32401 89.7189L5.8687 89.8991Z" fill="#0ED762"/>
  <path d="M12.7395 77.8726L11.8615 77.9572C12.1623 78.5327 12.3697 79.116 12.4834 79.7072C12.5869 80.2858 12.6188 80.7701 12.5791 81.1602L12.5003 81.9348C12.421 82.715 12.1222 83.3164 11.6039 83.739C11.0856 84.1616 10.4364 84.3332 9.65613 84.2539L5.69754 83.8513C4.83698 83.7638 4.19025 83.4546 3.75734 82.9237C3.31412 82.3801 3.13627 81.6781 3.22378 80.8175L3.58259 77.2892L0.656677 76.9917L0.962972 73.9797L13.0108 75.2049L12.7395 77.8726ZM10.171 80.0459C10.2328 79.4378 10.1881 78.7376 10.0368 77.9455L5.9061 77.5255L5.64357 80.1072C5.59689 80.5661 5.80304 80.819 6.262 80.8656L9.44608 81.1894C9.6182 81.2069 9.76746 81.1641 9.89387 81.0611C10.0203 80.958 10.0922 80.8204 10.1097 80.6483L10.171 80.0459Z" fill="#0ED762"/>
  <path d="M7.34643 67.8017C7.23166 68.2485 7.3977 68.5293 7.84453 68.6441L8.76611 68.8808L9.49775 66.0322L8.57617 65.7955C8.12934 65.6808 7.84854 65.8468 7.73377 66.2936L7.34643 67.8017ZM15.3592 64.7692C15.0289 66.9825 14.6385 68.9661 14.188 70.7199C13.9929 71.4795 13.6076 72.0295 13.0319 72.3699C12.4563 72.7102 11.7887 72.7829 11.0291 72.5878L7.00759 71.5549C6.16978 71.3397 5.57655 70.9372 5.22788 70.3476C4.87091 69.7439 4.80002 69.0231 5.01521 68.1853L5.87596 64.8341C6.09115 63.9963 6.49917 63.4045 7.10001 63.0587C7.69256 62.6988 8.40774 62.6265 9.24554 62.8417L12.3454 63.6379L10.8606 69.4187L11.5309 69.5909C11.6984 69.6339 11.8524 69.6139 11.9928 69.5309C12.1332 69.4479 12.2249 69.3226 12.268 69.1551C12.552 68.0492 12.8843 66.4079 13.2647 64.2312L15.3592 64.7692Z" fill="#0ED762"/>
  <path d="M11.9422 51.6901C12.1844 51.1795 12.5412 50.8446 13.0125 50.6852C13.4783 50.5104 13.9666 50.5442 14.4772 50.7864L15.1024 51.083C15.613 51.3252 15.9532 51.6844 16.123 52.1607C16.2873 52.6216 16.2483 53.1073 16.0061 53.6179L15.7095 54.2432C15.4673 54.7538 15.1133 55.0964 14.6475 55.2712C14.1761 55.4305 13.6852 55.3891 13.1746 55.1469L12.5494 54.8503C12.0388 54.6081 11.7013 54.2566 11.537 53.7957C11.3672 53.3194 11.4034 52.826 11.6456 52.3154L11.9422 51.6901Z" fill="#0ED762"/>
  <path d="M27.3664 42.2208L23.7918 47.3208L21.8084 45.9307L22.7021 44.6557L16.7521 40.4853L15.8584 41.7603L13.8751 40.3702L17.4497 35.2702L19.433 36.6603L18.5394 37.9353L24.4894 42.1057L25.3831 40.8307L27.3664 42.2208Z" fill="#0ED762"/>
  <path d="M23.8676 27.5816L28.9333 22.8672C29.7607 22.0972 30.5453 21.7214 31.2873 21.7399C32.0214 21.75 32.7459 22.1391 33.4609 22.9074C33.9324 23.414 34.2076 23.9298 34.2867 24.4549C34.3579 24.9716 34.292 25.4425 34.0891 25.8678C34.9458 25.4171 35.8344 25.4408 36.755 25.939C37.083 26.1222 37.4081 26.3868 37.7303 26.733C38.5003 27.5604 38.8718 28.349 38.8449 29.0988C38.818 29.8486 38.3908 30.6085 37.5634 31.3785L32.1179 36.4465L23.8676 27.5816ZM35.0971 28.4745C34.6257 27.968 34.1367 27.9504 33.6301 28.4219L31.0973 30.7791L32.7474 32.552L35.2802 30.1948C35.7867 29.7234 35.8043 29.2344 35.3329 28.7278L35.0971 28.4745ZM31.4171 25.2822C30.9457 24.7756 30.4567 24.7581 29.9501 25.2295L27.7972 27.2331L29.4473 29.0061L31.6002 27.0025C32.1067 26.531 32.1243 26.042 31.6528 25.5355L31.4171 25.2822Z" fill="#0ED762"/>
  <path d="M43.8052 23.6926C44.3146 23.3549 44.8277 22.8764 45.3443 22.2571L41.7595 16.85L44.2828 15.1771L49.3493 22.8192L47.1144 24.3009L46.4922 23.6755C46.238 24.2731 45.9183 24.8032 45.5333 25.2661C45.1515 25.7129 44.7972 26.0447 44.4703 26.2614L43.8215 26.6915C43.1678 27.1249 42.5133 27.2752 41.8579 27.1423C41.2025 27.0095 40.6581 26.6163 40.2247 25.9626L36.4965 20.3392L39.0199 18.6663L42.4613 23.8571C42.5569 24.0013 42.6846 24.0896 42.8444 24.122C43.0043 24.1544 43.1563 24.1228 43.3005 24.0272L43.8052 23.6926Z" fill="#0ED762"/>
  <path d="M50.6777 12.3005L54.6609 20.1732L51.9595 21.54L49.0307 15.7512L47.8729 16.337L46.8186 14.253L50.6777 12.3005ZM46.4143 10.5799L49.1157 9.21317L50.2091 11.3743L47.5077 12.7411L46.4143 10.5799Z" fill="#0ED762"/>
  <path d="M60.8203 17.5648C60.1483 17.9634 59.4866 18.2956 58.8352 18.5613C58.1945 18.8227 57.5659 18.8237 56.9494 18.5644C56.333 18.3052 55.8767 17.8125 55.5805 17.0863L51.9216 8.1158L54.7248 6.97239L58.2204 15.5424C58.2858 15.7026 58.3936 15.8143 58.5439 15.8775C58.6943 15.9408 58.8496 15.9397 59.0098 15.8744L59.9709 15.4824L60.8203 17.5648Z" fill="#0ED762"/>
  <path d="M68.5502 15.2179L68.154 14.4297C67.7262 14.9182 67.2572 15.3223 66.7471 15.642C66.245 15.9476 65.8049 16.1523 65.4268 16.2563L64.6762 16.4628C63.92 16.6708 63.2512 16.6095 62.6699 16.2789C62.0886 15.9484 61.6939 15.405 61.4859 14.6489L60.4307 10.8123C60.2014 9.97828 60.256 9.26351 60.5946 8.66799C60.9412 8.0583 61.5316 7.63876 62.3656 7.40938L65.7851 6.46889L65.0052 3.63319L67.9243 2.83034L71.1357 14.5068L68.5502 15.2179ZM65.5956 13.6083C66.185 13.4462 66.8216 13.1514 67.5055 12.7241L66.4045 8.72077L63.9024 9.40893C63.4576 9.53127 63.2963 9.81485 63.4187 10.2597L64.2674 13.3456C64.3133 13.5124 64.4071 13.6361 64.5489 13.7167C64.6907 13.7973 64.845 13.8147 65.0118 13.7688L65.5956 13.6083Z" fill="#0ED762"/>
  <path d="M80.601 4.96938C81.1646 4.92744 81.6322 5.0719 82.0037 5.40276C82.386 5.72127 82.5981 6.16231 82.64 6.72589L82.6914 7.41598C82.7333 7.97955 82.5893 8.45288 82.2593 8.83597C81.9399 9.20669 81.4984 9.41303 80.9349 9.45498L80.2448 9.50634C79.6812 9.54828 79.2083 9.41 78.8261 9.0915C78.4545 8.76063 78.2477 8.31341 78.2058 7.74983L78.1544 7.05974C78.1125 6.49617 78.2512 6.02902 78.5705 5.65829C78.9006 5.27521 79.3473 5.06269 79.9109 5.02075L80.601 4.96938Z" fill="#0ED762"/>
  <path d="M118.6 79.4917L112.083 74.1083V63.625C112.079 63.3533 111.996 63.0887 111.846 62.8626C111.695 62.6366 111.482 62.4586 111.233 62.35L97.2083 55.975H96.6416L95.7916 56.2583L88 61.3583L80.2083 56.1167L79.3583 55.8333H78.7916L64.7666 62.35C64.5176 62.4586 64.3051 62.6366 64.1544 62.8626C64.0037 63.0887 63.9211 63.3533 63.9166 63.625V74.1083L57.4 79.4917C57.2034 79.6026 57.0444 79.7698 56.9435 79.9717C56.8425 80.1737 56.8041 80.4011 56.8333 80.625V93.375C56.8041 93.5988 56.8425 93.8263 56.9435 94.0282C57.0444 94.2302 57.2034 94.3973 57.4 94.5083L63.9166 99.8916V110.375C63.9211 110.647 64.0037 110.911 64.1544 111.137C64.3051 111.363 64.5176 111.541 64.7666 111.65L78.7916 118.025H79.3583L80.2083 117.742L88 112.642L95.7916 117.883L96.6416 118.167H97.2083L111.233 111.792C111.482 111.683 111.695 111.505 111.846 111.279C111.996 111.053 112.079 110.788 112.083 110.517V99.8916L118.6 94.5083C118.774 94.408 118.918 94.2633 119.017 94.0891C119.117 93.9149 119.168 93.7173 119.167 93.5167V80.4833C119.168 80.2827 119.117 80.0851 119.017 79.9109C118.918 79.7367 118.774 79.592 118.6 79.4917ZM111.375 89.125H113.5V91.3917L108.542 95.3583L107.975 95.7833L107.408 95.5C107.161 95.358 106.887 95.271 106.603 95.2446C106.32 95.2183 106.034 95.2534 105.765 95.3475C105.496 95.4416 105.25 95.5925 105.045 95.7899C104.84 95.9874 104.68 96.2267 104.575 96.4917C104.321 96.9818 104.267 97.5516 104.426 98.0805C104.585 98.6093 104.943 99.0557 105.425 99.325L106.417 99.75V107.4L97.0666 111.792L91.1166 107.825L90.125 107.117V89.125H92.25C92.8136 89.125 93.3541 88.9011 93.7526 88.5026C94.1511 88.1041 94.375 87.5636 94.375 87C94.375 86.4364 94.1511 85.8959 93.7526 85.4974C93.3541 85.0989 92.8136 84.875 92.25 84.875H90.125V66.7417L91.1166 66.0333L97.0666 62.0667L106.417 66.4583V74.1083L105.425 74.5333C104.943 74.8026 104.585 75.249 104.426 75.7778C104.267 76.3067 104.321 76.8765 104.575 77.3667C104.718 77.74 104.97 78.0615 105.299 78.289C105.627 78.5166 106.017 78.6395 106.417 78.6417L107.408 78.3583L107.975 78.075L108.542 78.5L113.5 82.6083V84.875H111.375C110.811 84.875 110.271 85.0989 109.872 85.4974C109.474 85.8959 109.25 86.4364 109.25 87C109.25 87.5636 109.474 88.1041 109.872 88.5026C110.271 88.9011 110.811 89.125 111.375 89.125ZM83.75 89.125H85.875V107.258L84.8833 107.967L78.9333 111.933L69.5833 107.542V99.8916L70.575 99.4667C71.057 99.1974 71.4153 98.751 71.5739 98.2222C71.7326 97.6933 71.6791 97.1235 71.425 96.6333C71.3204 96.3684 71.1601 96.129 70.9548 95.9316C70.7495 95.7342 70.5041 95.5833 70.2352 95.4892C69.9664 95.3951 69.6804 95.36 69.3968 95.3863C69.1132 95.4126 68.8386 95.4997 68.5916 95.6417L68.025 95.925L67.4583 95.5L62.5 91.3917V89.125H64.625C65.1886 89.125 65.7291 88.9011 66.1276 88.5026C66.5261 88.1041 66.75 87.5636 66.75 87C66.75 86.4364 66.5261 85.8959 66.1276 85.4974C65.7291 85.0989 65.1886 84.875 64.625 84.875H62.5V82.6083L67.4583 78.6417L68.025 78.2167L68.5916 78.5L69.5833 78.7833C69.983 78.7811 70.3727 78.6582 70.7014 78.4307C71.03 78.2032 71.2822 77.8817 71.425 77.5083C71.6791 77.0182 71.7326 76.4483 71.5739 75.9195C71.4153 75.3906 71.057 74.9443 70.575 74.675L69.5833 74.25V66.4583L78.9333 62.0667L84.8833 66.0333L85.875 66.7417V84.875H83.75C83.1864 84.875 82.6459 85.0989 82.2474 85.4974C81.8489 85.8959 81.625 86.4364 81.625 87C81.625 87.5636 81.8489 88.1041 82.2474 88.5026C82.6459 88.9011 83.1864 89.125 83.75 89.125Z" fill="#0ED762"/>
  <path d="M73.6916 67.025C73.347 67.4714 73.1601 68.0194 73.1601 68.5833C73.1601 69.1473 73.347 69.6953 73.6916 70.1417L77.375 73.6833V77.65L71.7083 83.3167V90.6833L77.375 96.35V100.317L73.6916 103.858C73.347 104.305 73.1601 104.853 73.1601 105.417C73.1601 105.981 73.347 106.529 73.6916 106.975C73.9002 107.169 74.1455 107.319 74.4133 107.417C74.681 107.514 74.9655 107.556 75.25 107.542C75.5344 107.556 75.819 107.514 76.0867 107.417C76.3544 107.319 76.5998 107.169 76.8083 106.975L81.625 102.017V94.65L75.9583 88.9833V85.0167L81.625 79.35V71.9833L76.8083 67.025C76.3619 66.6804 75.8139 66.4934 75.25 66.4934C74.686 66.4934 74.138 66.6804 73.6916 67.025Z" fill="#0ED762"/>
  <path d="M98.625 73.6833L102.308 70.1417C102.653 69.6953 102.84 69.1473 102.84 68.5833C102.84 68.0194 102.653 67.4714 102.308 67.025C101.862 66.6804 101.314 66.4934 100.75 66.4934C100.186 66.4934 99.638 66.6804 99.1916 67.025L94.375 71.9833V79.35L100.042 85.0167V88.9833L94.375 94.65V102.017L99.1916 106.975C99.6269 107.344 100.179 107.547 100.75 107.547C101.321 107.547 101.873 107.344 102.308 106.975C102.653 106.529 102.84 105.981 102.84 105.417C102.84 104.853 102.653 104.305 102.308 103.858L98.625 100.317V96.35L104.292 90.6833V83.3167L98.625 77.65V73.6833Z" fill="#0ED762"/>
  </svg>
